<svg width="271.348" height="41.426" viewBox="0 0 271.348 41.426" xmlns="http://www.w3.org/2000/svg"><g id="svgGroup" stroke-linecap="round" fill-rule="evenodd" font-size="9pt" stroke="#000" stroke-width="0.6mm" fill="#000000" style="stroke:#000;stroke-width:0.6mm;fill:#000000"><path d="M 185.508 0.586 L 185.508 40.547 L 180.117 40.547 L 160.547 7.324 L 160.547 40.547 L 155.977 40.547 L 155.977 0.586 L 161.426 0.586 L 180.938 33.692 L 180.938 0.586 L 185.508 0.586 Z M 194.649 27.422 L 194.649 0.586 L 199.219 0.586 L 199.219 27.539 A 11.992 11.992 0 0 0 199.744 31.107 A 11.904 11.904 0 0 0 199.746 31.113 A 8.381 8.381 0 0 0 201.446 34.16 A 7.443 7.443 0 0 0 203.308 35.688 A 9.665 9.665 0 0 0 204.551 36.299 Q 206.204 36.975 208.499 37.073 A 18.681 18.681 0 0 0 209.297 37.09 A 16.663 16.663 0 0 0 211.423 36.962 Q 212.507 36.822 213.428 36.53 A 9.024 9.024 0 0 0 214.072 36.299 A 9.359 9.359 0 0 0 215.739 35.435 A 7.166 7.166 0 0 0 217.207 34.16 A 8.381 8.381 0 0 0 218.906 31.113 A 11.989 11.989 0 0 0 219.434 27.543 A 16.763 16.763 0 0 0 219.434 27.539 L 219.434 0.586 L 224.004 0.586 L 224.004 27.422 A 18.713 18.713 0 0 1 223.792 30.317 Q 223.482 32.299 222.715 33.867 A 12.685 12.685 0 0 1 220.783 36.774 A 11.147 11.147 0 0 1 219.317 38.145 Q 217.207 39.785 214.571 40.488 A 20.391 20.391 0 0 1 209.297 41.192 Q 206.66 41.192 204.024 40.488 A 12.893 12.893 0 0 1 199.307 38.145 A 11.694 11.694 0 0 1 196.54 34.973 A 14.152 14.152 0 0 1 195.938 33.867 Q 194.77 31.478 194.66 28.127 A 21.552 21.552 0 0 1 194.649 27.422 Z M 29.121 34.043 L 31.172 37.676 A 24.569 24.569 0 0 1 25.333 40.239 A 27.217 27.217 0 0 1 25.283 40.254 A 22.978 22.978 0 0 1 21.029 41.06 A 28.984 28.984 0 0 1 18.223 41.192 A 24.324 24.324 0 0 1 13.483 40.745 A 20.621 20.621 0 0 1 10.869 40.049 A 15.889 15.889 0 0 1 6.442 37.755 A 14.653 14.653 0 0 1 5.098 36.621 A 14.935 14.935 0 0 1 2.088 32.534 A 18.258 18.258 0 0 1 1.348 30.879 A 19.027 19.027 0 0 1 0.296 26.892 Q 0.005 25.024 0 22.919 A 30.871 30.871 0 0 1 0 22.852 L 0 18.281 Q 0 13.711 1.348 10.283 Q 2.696 6.856 5.098 4.571 Q 7.5 2.285 10.869 1.143 A 21.684 21.684 0 0 1 16.03 0.091 A 26.092 26.092 0 0 1 18.223 0 A 23.725 23.725 0 0 1 24.419 0.798 A 22.328 22.328 0 0 1 24.61 0.85 Q 27.656 1.699 30.235 3.223 L 28.184 6.856 A 21.101 21.101 0 0 0 25.488 5.528 A 25.99 25.99 0 0 0 23.672 4.863 A 16.881 16.881 0 0 0 19.574 4.088 A 19.951 19.951 0 0 0 18.223 4.043 A 17.923 17.923 0 0 0 15.17 4.292 A 13.646 13.646 0 0 0 12.393 5.069 A 11.739 11.739 0 0 0 9.031 7.101 A 10.947 10.947 0 0 0 8.115 7.998 A 12.536 12.536 0 0 0 5.848 11.596 A 14.855 14.855 0 0 0 5.479 12.569 A 16.849 16.849 0 0 0 4.698 16.141 A 21.399 21.399 0 0 0 4.571 18.516 L 4.571 22.617 Q 4.571 25.957 5.479 28.623 A 13.365 13.365 0 0 0 6.934 31.647 A 11.621 11.621 0 0 0 8.115 33.164 Q 9.844 35.039 12.393 36.065 A 13.931 13.931 0 0 0 15.678 36.921 A 18.406 18.406 0 0 0 18.223 37.09 Q 21.68 37.09 24.375 36.24 A 20.815 20.815 0 0 0 27.276 35.092 A 16.85 16.85 0 0 0 29.121 34.043 Z M 106.231 34.043 L 108.281 37.676 A 24.569 24.569 0 0 1 102.443 40.239 A 27.217 27.217 0 0 1 102.393 40.254 A 22.978 22.978 0 0 1 98.138 41.06 A 28.984 28.984 0 0 1 95.332 41.192 A 24.324 24.324 0 0 1 90.592 40.745 A 20.621 20.621 0 0 1 87.979 40.049 A 15.889 15.889 0 0 1 83.552 37.755 A 14.653 14.653 0 0 1 82.207 36.621 A 14.935 14.935 0 0 1 79.197 32.534 A 18.258 18.258 0 0 1 78.457 30.879 A 19.027 19.027 0 0 1 77.406 26.892 Q 77.114 25.024 77.11 22.919 A 30.871 30.871 0 0 1 77.11 22.852 L 77.11 18.281 Q 77.11 13.711 78.457 10.283 Q 79.805 6.856 82.207 4.571 Q 84.61 2.285 87.979 1.143 A 21.684 21.684 0 0 1 93.14 0.091 A 26.092 26.092 0 0 1 95.332 0 A 23.725 23.725 0 0 1 101.528 0.798 A 22.328 22.328 0 0 1 101.719 0.85 Q 104.766 1.699 107.344 3.223 L 105.293 6.856 A 21.101 21.101 0 0 0 102.597 5.528 A 25.99 25.99 0 0 0 100.781 4.863 A 16.881 16.881 0 0 0 96.683 4.088 A 19.951 19.951 0 0 0 95.332 4.043 A 17.923 17.923 0 0 0 92.28 4.292 A 13.646 13.646 0 0 0 89.502 5.069 A 11.739 11.739 0 0 0 86.14 7.101 A 10.947 10.947 0 0 0 85.225 7.998 A 12.536 12.536 0 0 0 82.958 11.596 A 14.855 14.855 0 0 0 82.588 12.569 A 16.849 16.849 0 0 0 81.808 16.141 A 21.399 21.399 0 0 0 81.68 18.516 L 81.68 22.617 Q 81.68 25.957 82.588 28.623 A 13.365 13.365 0 0 0 84.044 31.647 A 11.621 11.621 0 0 0 85.225 33.164 Q 86.953 35.039 89.502 36.065 A 13.931 13.931 0 0 0 92.787 36.921 A 18.406 18.406 0 0 0 95.332 37.09 Q 98.789 37.09 101.485 36.24 A 20.815 20.815 0 0 0 104.386 35.092 A 16.85 16.85 0 0 0 106.231 34.043 Z M 229.336 0.586 L 260.977 0.586 L 260.977 4.629 L 247.442 4.629 L 247.442 40.547 L 242.871 40.547 L 242.871 4.629 L 229.336 4.629 L 229.336 0.586 Z M 35.449 22.852 L 35.449 18.281 Q 35.449 13.867 36.679 10.519 A 16.581 16.581 0 0 1 36.768 10.283 A 16.699 16.699 0 0 1 38.705 6.616 A 14.272 14.272 0 0 1 40.459 4.571 A 15.132 15.132 0 0 1 45.733 1.29 A 17.462 17.462 0 0 1 46.143 1.143 A 20.903 20.903 0 0 1 50.984 0.115 A 25.711 25.711 0 0 1 53.438 0 A 24.146 24.146 0 0 1 57.698 0.362 A 19.668 19.668 0 0 1 60.703 1.143 A 15.354 15.354 0 0 1 65.981 4.22 A 14.873 14.873 0 0 1 66.358 4.571 A 14.922 14.922 0 0 1 69.373 8.739 A 18.161 18.161 0 0 1 70.049 10.283 A 19.043 19.043 0 0 1 71.075 14.232 Q 71.358 16.071 71.367 18.147 A 31.519 31.519 0 0 1 71.367 18.281 L 71.367 22.852 A 26.861 26.861 0 0 1 71.087 26.828 Q 70.76 29.016 70.049 30.879 Q 68.731 34.336 66.358 36.621 A 15.252 15.252 0 0 1 60.806 40.013 A 17.478 17.478 0 0 1 60.703 40.049 A 20.47 20.47 0 0 1 56.094 41.057 A 25.446 25.446 0 0 1 53.438 41.192 A 24.179 24.179 0 0 1 49 40.799 A 19.964 19.964 0 0 1 46.143 40.049 A 15.5 15.5 0 0 1 41.422 37.47 A 14.629 14.629 0 0 1 40.459 36.621 Q 38.086 34.336 36.768 30.879 A 19.365 19.365 0 0 1 35.739 26.892 Q 35.454 25.024 35.45 22.919 A 31.568 31.568 0 0 1 35.449 22.852 Z M 112.559 22.852 L 112.559 18.281 Q 112.559 13.867 113.789 10.519 A 16.581 16.581 0 0 1 113.877 10.283 A 16.699 16.699 0 0 1 115.815 6.616 A 14.272 14.272 0 0 1 117.569 4.571 A 15.132 15.132 0 0 1 122.842 1.29 A 17.462 17.462 0 0 1 123.252 1.143 A 20.903 20.903 0 0 1 128.093 0.115 A 25.711 25.711 0 0 1 130.547 0 A 24.146 24.146 0 0 1 134.807 0.362 A 19.668 19.668 0 0 1 137.813 1.143 A 15.354 15.354 0 0 1 143.091 4.22 A 14.873 14.873 0 0 1 143.467 4.571 A 14.922 14.922 0 0 1 146.482 8.739 A 18.161 18.161 0 0 1 147.158 10.283 A 19.043 19.043 0 0 1 148.185 14.232 Q 148.468 16.071 148.476 18.147 A 31.519 31.519 0 0 1 148.477 18.281 L 148.477 22.852 A 26.861 26.861 0 0 1 148.197 26.828 Q 147.869 29.016 147.158 30.879 Q 145.84 34.336 143.467 36.621 A 15.252 15.252 0 0 1 137.915 40.013 A 17.478 17.478 0 0 1 137.813 40.049 A 20.47 20.47 0 0 1 133.203 41.057 A 25.446 25.446 0 0 1 130.547 41.192 A 24.179 24.179 0 0 1 126.109 40.799 A 19.964 19.964 0 0 1 123.252 40.049 A 15.5 15.5 0 0 1 118.531 37.47 A 14.629 14.629 0 0 1 117.569 36.621 Q 115.196 34.336 113.877 30.879 A 19.365 19.365 0 0 1 112.848 26.892 Q 112.563 25.024 112.559 22.919 A 31.568 31.568 0 0 1 112.559 22.852 Z M 66.797 22.617 L 66.797 18.516 A 21.934 21.934 0 0 0 66.557 15.203 A 17.24 17.24 0 0 0 65.947 12.569 A 13.448 13.448 0 0 0 64.565 9.534 A 11.685 11.685 0 0 0 63.428 7.998 A 10.841 10.841 0 0 0 59.703 5.269 A 12.75 12.75 0 0 0 59.238 5.069 A 13.587 13.587 0 0 0 56.071 4.226 A 18.208 18.208 0 0 0 53.438 4.043 A 17.814 17.814 0 0 0 50.535 4.268 A 13.132 13.132 0 0 0 47.666 5.069 A 11.376 11.376 0 0 0 43.914 7.536 A 10.995 10.995 0 0 0 43.477 7.998 A 12.398 12.398 0 0 0 41.273 11.556 A 14.779 14.779 0 0 0 40.899 12.569 A 17.301 17.301 0 0 0 40.149 16.094 A 22.059 22.059 0 0 0 40.02 18.516 L 40.02 22.617 A 21.808 21.808 0 0 0 40.253 25.882 A 16.754 16.754 0 0 0 40.899 28.623 A 13.325 13.325 0 0 0 42.274 31.579 A 11.487 11.487 0 0 0 43.477 33.164 A 11.359 11.359 0 0 0 47.358 35.933 A 13.162 13.162 0 0 0 47.666 36.065 A 13.243 13.243 0 0 0 50.718 36.894 A 18.004 18.004 0 0 0 53.438 37.09 Q 56.719 37.09 59.238 36.065 Q 61.758 35.039 63.428 33.164 A 11.889 11.889 0 0 0 65.504 29.829 A 14.421 14.421 0 0 0 65.947 28.623 A 17.648 17.648 0 0 0 66.646 25.315 A 23.165 23.165 0 0 0 66.797 22.617 Z M 143.906 22.617 L 143.906 18.516 A 21.934 21.934 0 0 0 143.667 15.203 A 17.24 17.24 0 0 0 143.057 12.569 A 13.448 13.448 0 0 0 141.674 9.534 A 11.685 11.685 0 0 0 140.537 7.998 A 10.841 10.841 0 0 0 136.813 5.269 A 12.75 12.75 0 0 0 136.348 5.069 A 13.587 13.587 0 0 0 133.18 4.226 A 18.208 18.208 0 0 0 130.547 4.043 A 17.814 17.814 0 0 0 127.645 4.268 A 13.132 13.132 0 0 0 124.776 5.069 A 11.376 11.376 0 0 0 121.023 7.536 A 10.995 10.995 0 0 0 120.586 7.998 A 12.398 12.398 0 0 0 118.383 11.556 A 14.779 14.779 0 0 0 118.008 12.569 A 17.301 17.301 0 0 0 117.258 16.094 A 22.059 22.059 0 0 0 117.129 18.516 L 117.129 22.617 A 21.808 21.808 0 0 0 117.363 25.882 A 16.754 16.754 0 0 0 118.008 28.623 A 13.325 13.325 0 0 0 119.384 31.579 A 11.487 11.487 0 0 0 120.586 33.164 A 11.359 11.359 0 0 0 124.467 35.933 A 13.162 13.162 0 0 0 124.776 36.065 A 13.243 13.243 0 0 0 127.827 36.894 A 18.004 18.004 0 0 0 130.547 37.09 Q 133.828 37.09 136.348 36.065 Q 138.867 35.039 140.537 33.164 A 11.889 11.889 0 0 0 142.614 29.829 A 14.421 14.421 0 0 0 143.057 28.623 A 17.648 17.648 0 0 0 143.755 25.315 A 23.165 23.165 0 0 0 143.906 22.617 Z M 264.492 38.145 Q 264.492 36.797 265.547 35.86 Q 266.602 34.922 267.949 34.922 Q 269.297 34.922 270.322 35.86 A 3.17 3.17 0 0 1 271.083 36.882 A 3.002 3.002 0 0 1 271.348 38.145 A 3.053 3.053 0 0 1 270.401 40.383 A 3.971 3.971 0 0 1 270.322 40.459 Q 269.297 41.426 267.949 41.426 A 3.438 3.438 0 0 1 265.622 40.526 A 4.425 4.425 0 0 1 265.547 40.459 A 3.355 3.355 0 0 1 264.812 39.514 A 2.967 2.967 0 0 1 264.492 38.145 Z" vector-effect="non-scaling-stroke"/></g></svg>