<svg width="271.348" height="41.426" viewBox="0 0 271.348 41.426" xmlns="http://www.w3.org/2000/svg"><g id="svgGroup" stroke-linecap="round" fill-rule="evenodd" font-size="9pt" stroke="#ffffff00" stroke-width="1mm" fill="#ffffff" style="stroke:#ffffff00;stroke-width:1mm;fill:#ffffff"><path d="M 216.645 8.906 L 222.738 8.906 L 222.738 45.156 L 217.66 45.156 L 216.879 42.188 Q 214.145 43.984 211.02 45 Q 207.895 46.016 204.535 46.016 A 14.413 14.413 0 0 1 199.731 45.234 Q 197.504 44.453 195.902 42.813 A 11.727 11.727 0 0 1 193.363 38.672 Q 192.426 36.172 192.426 32.813 L 192.426 8.906 L 198.441 8.906 L 198.441 32.578 A 8.22 8.22 0 0 0 200.395 38.867 A 7.19 7.19 0 0 0 205.395 40.625 A 18.766 18.766 0 0 0 211.059 39.727 A 18.92 18.92 0 0 0 216.645 36.797 L 216.645 8.906 Z M 157.113 45.156 L 151.098 45.156 L 151.098 8.906 L 156.098 8.906 L 156.879 11.875 A 23.24 23.24 0 0 1 162.738 9.102 A 21.612 21.612 0 0 1 169.223 8.125 A 14.413 14.413 0 0 1 174.027 8.906 Q 176.254 9.688 177.895 11.328 A 11.49 11.49 0 0 1 180.473 15.43 Q 181.41 17.891 181.41 21.25 L 181.41 45.156 L 175.316 45.156 L 175.316 21.484 Q 175.316 17.031 173.363 15.273 A 7.19 7.19 0 0 0 168.363 13.516 A 18.766 18.766 0 0 0 162.699 14.414 A 18.92 18.92 0 0 0 157.113 17.344 L 157.113 45.156 Z M 229.535 14.297 L 229.535 8.906 L 236.098 8.906 L 236.098 0 L 242.113 0 L 242.113 8.906 L 252.816 8.906 L 252.816 14.297 L 242.113 14.297 L 242.113 31.563 Q 242.113 34.453 242.426 36.211 Q 242.738 37.969 243.441 38.906 Q 244.145 39.844 245.16 40.156 Q 246.176 40.469 247.582 40.469 Q 248.441 40.469 249.887 40.156 A 48.886 48.886 0 0 0 252.973 39.375 L 254.223 44.375 A 25.951 25.951 0 0 1 250.668 45.43 A 15.006 15.006 0 0 1 247.504 45.859 A 16.362 16.362 0 0 1 242.27 45.117 A 7.517 7.517 0 0 1 238.715 42.656 A 10.988 10.988 0 0 1 236.723 38.203 Q 236.098 35.469 236.098 31.563 L 236.098 14.297 L 229.535 14.297 Z M 26.957 37.656 L 29.457 42.578 A 24.243 24.243 0 0 1 23.91 44.961 A 23.105 23.105 0 0 1 17.348 45.859 A 21.489 21.489 0 0 1 10.512 44.805 A 15.409 15.409 0 0 1 5.004 41.641 Q 2.66 39.531 1.332 36.406 Q 0.004 33.281 0.004 29.141 L 0.004 24.922 Q 0.004 20.781 1.332 17.656 A 14.245 14.245 0 0 1 5.004 12.461 Q 7.348 10.391 10.512 9.336 A 21.489 21.489 0 0 1 17.348 8.281 A 22.487 22.487 0 0 1 23.363 9.102 A 23.348 23.348 0 0 1 28.676 11.25 L 26.176 16.25 A 25.878 25.878 0 0 0 22.113 14.414 A 14.302 14.302 0 0 0 17.348 13.672 Q 12.035 13.672 9.027 16.484 A 11.343 11.343 0 0 0 6.02 25.156 L 6.02 28.906 A 11.477 11.477 0 0 0 9.027 37.617 A 11.606 11.606 0 0 0 17.348 40.469 A 16.67 16.67 0 0 0 22.699 39.688 A 19.44 19.44 0 0 0 26.957 37.656 Z M 101.488 37.656 L 103.988 42.578 A 24.243 24.243 0 0 1 98.441 44.961 A 23.105 23.105 0 0 1 91.879 45.859 A 21.489 21.489 0 0 1 85.043 44.805 A 15.409 15.409 0 0 1 79.535 41.641 Q 77.191 39.531 75.863 36.406 Q 74.535 33.281 74.535 29.141 L 74.535 24.922 Q 74.535 20.781 75.863 17.656 A 14.245 14.245 0 0 1 79.535 12.461 Q 81.879 10.391 85.043 9.336 A 21.489 21.489 0 0 1 91.879 8.281 A 22.487 22.487 0 0 1 97.895 9.102 A 23.348 23.348 0 0 1 103.207 11.25 L 100.707 16.25 A 25.878 25.878 0 0 0 96.645 14.414 A 14.302 14.302 0 0 0 91.879 13.672 Q 86.566 13.672 83.559 16.484 A 11.343 11.343 0 0 0 80.551 25.156 L 80.551 28.906 A 11.477 11.477 0 0 0 83.559 37.617 A 11.606 11.606 0 0 0 91.879 40.469 A 16.67 16.67 0 0 0 97.231 39.688 A 19.44 19.44 0 0 0 101.488 37.656 Z M 35.395 29.063 L 35.395 25 Q 35.395 20.859 36.566 17.734 A 14.198 14.198 0 0 1 39.887 12.5 A 13.844 13.844 0 0 1 44.965 9.336 A 18.907 18.907 0 0 1 51.41 8.281 A 19.243 19.243 0 0 1 57.895 9.336 A 13.788 13.788 0 0 1 63.012 12.5 Q 65.16 14.609 66.332 17.734 Q 67.504 20.859 67.504 25 L 67.504 29.063 Q 67.504 33.203 66.332 36.367 A 14.147 14.147 0 0 1 63.012 41.641 A 13.788 13.788 0 0 1 57.895 44.805 A 19.243 19.243 0 0 1 51.41 45.859 A 18.907 18.907 0 0 1 44.965 44.805 A 13.844 13.844 0 0 1 39.887 41.641 A 14.147 14.147 0 0 1 36.566 36.367 Q 35.395 33.203 35.395 29.063 Z M 109.926 29.063 L 109.926 25 Q 109.926 20.859 111.098 17.734 A 14.198 14.198 0 0 1 114.418 12.5 A 13.844 13.844 0 0 1 119.496 9.336 A 18.907 18.907 0 0 1 125.941 8.281 A 19.243 19.243 0 0 1 132.426 9.336 A 13.788 13.788 0 0 1 137.543 12.5 Q 139.691 14.609 140.863 17.734 Q 142.035 20.859 142.035 25 L 142.035 29.063 Q 142.035 33.203 140.863 36.367 A 14.147 14.147 0 0 1 137.543 41.641 A 13.788 13.788 0 0 1 132.426 44.805 A 19.243 19.243 0 0 1 125.941 45.859 A 18.907 18.907 0 0 1 119.496 44.805 A 13.844 13.844 0 0 1 114.418 41.641 A 14.147 14.147 0 0 1 111.098 36.367 Q 109.926 33.203 109.926 29.063 Z M 61.488 29.063 L 61.488 25 A 13.207 13.207 0 0 0 59.106 16.836 A 9.01 9.01 0 0 0 51.41 13.672 A 8.917 8.917 0 0 0 43.793 16.836 A 13.207 13.207 0 0 0 41.41 25 L 41.41 29.063 A 13.38 13.38 0 0 0 43.793 37.266 Q 46.176 40.469 51.41 40.469 Q 56.645 40.469 59.066 37.266 Q 61.488 34.063 61.488 29.063 Z M 136.02 29.063 L 136.02 25 A 13.207 13.207 0 0 0 133.637 16.836 A 9.01 9.01 0 0 0 125.941 13.672 A 8.917 8.917 0 0 0 118.324 16.836 A 13.207 13.207 0 0 0 115.941 25 L 115.941 29.063 A 13.38 13.38 0 0 0 118.324 37.266 Q 120.707 40.469 125.941 40.469 Q 131.176 40.469 133.598 37.266 Q 136.02 34.063 136.02 29.063 Z M 259.691 41.953 Q 259.691 40.156 261.098 38.906 Q 262.504 37.656 264.301 37.656 A 4.547 4.547 0 0 1 267.465 38.906 A 3.974 3.974 0 0 1 268.832 41.953 A 4.094 4.094 0 0 1 267.465 45.039 A 4.473 4.473 0 0 1 264.301 46.328 A 4.609 4.609 0 0 1 261.098 45.039 Q 259.691 43.75 259.691 41.953 Z" vector-effect="non-scaling-stroke"/></g></svg>