<svg width="135.674" height="20.713" viewBox="0 0 135.674 20.713" xmlns="http://www.w3.org/2000/svg"><g id="svgGroup" stroke-linecap="round" fill-rule="evenodd" font-size="9pt" stroke="#000" stroke-width="0.6mm" fill="#000000" style="stroke:#000;stroke-width:0.6mm;fill:#000000"><path d="M 92.754 0.293 L 92.754 20.274 L 90.059 20.274 L 80.274 3.662 L 80.274 20.274 L 77.988 20.274 L 77.988 0.293 L 80.713 0.293 L 90.469 16.846 L 90.469 0.293 L 92.754 0.293 Z M 97.324 13.711 L 97.324 0.293 L 99.609 0.293 L 99.609 13.77 A 5.996 5.996 0 0 0 99.872 15.553 A 4.774 4.774 0 0 0 99.873 15.557 A 4.19 4.19 0 0 0 100.723 17.08 A 3.722 3.722 0 0 0 101.654 17.844 A 4.832 4.832 0 0 0 102.275 18.15 Q 103.102 18.488 104.249 18.537 A 9.34 9.34 0 0 0 104.649 18.545 Q 106.055 18.545 107.036 18.15 A 4.679 4.679 0 0 0 107.869 17.718 A 3.583 3.583 0 0 0 108.604 17.08 A 4.19 4.19 0 0 0 109.453 15.557 Q 109.717 14.707 109.717 13.77 L 109.717 0.293 L 112.002 0.293 L 112.002 13.711 A 9.356 9.356 0 0 1 111.896 15.158 Q 111.775 15.933 111.514 16.581 A 5.33 5.33 0 0 1 111.358 16.934 A 6.342 6.342 0 0 1 110.392 18.387 A 5.574 5.574 0 0 1 109.658 19.072 A 6.588 6.588 0 0 1 107.285 20.244 A 10.195 10.195 0 0 1 104.649 20.596 A 10.195 10.195 0 0 1 102.012 20.244 Q 100.693 19.893 99.653 19.072 A 5.847 5.847 0 0 1 98.27 17.487 A 7.076 7.076 0 0 1 97.969 16.934 Q 97.324 15.615 97.324 13.711 Z M 14.561 17.022 L 15.586 18.838 A 12.285 12.285 0 0 1 12.667 20.12 A 13.504 13.504 0 0 1 12.642 20.127 A 11.489 11.489 0 0 1 10.514 20.53 A 14.492 14.492 0 0 1 9.111 20.596 A 12.162 12.162 0 0 1 6.741 20.373 A 10.311 10.311 0 0 1 5.435 20.025 A 7.945 7.945 0 0 1 3.221 18.877 A 7.327 7.327 0 0 1 2.549 18.311 A 7.468 7.468 0 0 1 1.044 16.267 A 9.129 9.129 0 0 1 0.674 15.44 Q 0.005 13.724 0 11.459 A 15.351 15.351 0 0 1 0 11.426 L 0 9.141 A 13.118 13.118 0 0 1 0.138 7.187 Q 0.305 6.079 0.674 5.142 A 8.394 8.394 0 0 1 1.66 3.308 A 7.213 7.213 0 0 1 2.549 2.285 Q 3.75 1.143 5.435 0.571 Q 7.119 0 9.111 0 A 11.863 11.863 0 0 1 12.209 0.399 A 11.163 11.163 0 0 1 12.305 0.425 Q 13.828 0.85 15.117 1.611 L 14.092 3.428 A 10.551 10.551 0 0 0 12.744 2.764 A 12.995 12.995 0 0 0 11.836 2.432 Q 10.576 2.022 9.111 2.022 A 8.962 8.962 0 0 0 7.585 2.146 A 6.823 6.823 0 0 0 6.196 2.534 A 5.869 5.869 0 0 0 4.515 3.551 A 5.473 5.473 0 0 0 4.058 3.999 A 6.268 6.268 0 0 0 2.924 5.798 A 7.428 7.428 0 0 0 2.739 6.284 A 8.424 8.424 0 0 0 2.349 8.071 A 10.699 10.699 0 0 0 2.285 9.258 L 2.285 11.309 A 10.559 10.559 0 0 0 2.406 12.941 A 8.151 8.151 0 0 0 2.739 14.312 A 6.683 6.683 0 0 0 3.467 15.823 A 5.811 5.811 0 0 0 4.058 16.582 A 5.727 5.727 0 0 0 5.923 17.915 A 6.722 6.722 0 0 0 6.196 18.032 A 6.965 6.965 0 0 0 7.839 18.46 A 9.203 9.203 0 0 0 9.111 18.545 A 12.008 12.008 0 0 0 10.697 18.445 A 8.838 8.838 0 0 0 12.188 18.12 A 10.407 10.407 0 0 0 13.638 17.546 A 8.425 8.425 0 0 0 14.561 17.022 Z M 53.115 17.022 L 54.141 18.838 A 12.285 12.285 0 0 1 51.221 20.12 A 13.504 13.504 0 0 1 51.196 20.127 A 11.489 11.489 0 0 1 49.069 20.53 A 14.492 14.492 0 0 1 47.666 20.596 A 12.162 12.162 0 0 1 45.296 20.373 A 10.311 10.311 0 0 1 43.989 20.025 A 7.945 7.945 0 0 1 41.776 18.877 A 7.327 7.327 0 0 1 41.104 18.311 A 7.468 7.468 0 0 1 39.598 16.267 A 9.129 9.129 0 0 1 39.229 15.44 Q 38.56 13.724 38.555 11.459 A 15.351 15.351 0 0 1 38.555 11.426 L 38.555 9.141 A 13.118 13.118 0 0 1 38.693 7.187 Q 38.86 6.079 39.229 5.142 A 8.394 8.394 0 0 1 40.215 3.308 A 7.213 7.213 0 0 1 41.104 2.285 Q 42.305 1.143 43.989 0.571 Q 45.674 0 47.666 0 A 11.863 11.863 0 0 1 50.764 0.399 A 11.163 11.163 0 0 1 50.859 0.425 Q 52.383 0.85 53.672 1.611 L 52.647 3.428 A 10.551 10.551 0 0 0 51.298 2.764 A 12.995 12.995 0 0 0 50.391 2.432 Q 49.131 2.022 47.666 2.022 A 8.962 8.962 0 0 0 46.14 2.146 A 6.823 6.823 0 0 0 44.751 2.534 A 5.869 5.869 0 0 0 43.07 3.551 A 5.473 5.473 0 0 0 42.612 3.999 A 6.268 6.268 0 0 0 41.479 5.798 A 7.428 7.428 0 0 0 41.294 6.284 A 8.424 8.424 0 0 0 40.904 8.071 A 10.699 10.699 0 0 0 40.84 9.258 L 40.84 11.309 A 10.559 10.559 0 0 0 40.961 12.941 A 8.151 8.151 0 0 0 41.294 14.312 A 6.683 6.683 0 0 0 42.022 15.823 A 5.811 5.811 0 0 0 42.612 16.582 A 5.727 5.727 0 0 0 44.477 17.915 A 6.722 6.722 0 0 0 44.751 18.032 A 6.965 6.965 0 0 0 46.394 18.46 A 9.203 9.203 0 0 0 47.666 18.545 A 12.008 12.008 0 0 0 49.251 18.445 A 8.838 8.838 0 0 0 50.742 18.12 A 10.407 10.407 0 0 0 52.193 17.546 A 8.425 8.425 0 0 0 53.115 17.022 Z M 114.668 0.293 L 130.488 0.293 L 130.488 2.315 L 123.721 2.315 L 123.721 20.274 L 121.436 20.274 L 121.436 2.315 L 114.668 2.315 L 114.668 0.293 Z M 17.725 11.426 L 17.725 9.141 A 13.405 13.405 0 0 1 17.86 7.187 Q 18.023 6.079 18.384 5.142 A 8.349 8.349 0 0 1 19.353 3.308 A 7.136 7.136 0 0 1 20.23 2.285 A 7.566 7.566 0 0 1 22.866 0.645 A 8.731 8.731 0 0 1 23.071 0.571 A 10.452 10.452 0 0 1 25.492 0.057 A 12.856 12.856 0 0 1 26.719 0 A 12.073 12.073 0 0 1 28.849 0.181 A 9.834 9.834 0 0 1 30.352 0.571 A 7.677 7.677 0 0 1 32.991 2.11 A 7.437 7.437 0 0 1 33.179 2.285 Q 34.365 3.428 35.025 5.142 A 9.522 9.522 0 0 1 35.538 7.116 Q 35.684 8.065 35.684 9.141 L 35.684 11.426 A 13.43 13.43 0 0 1 35.544 13.414 A 9.706 9.706 0 0 1 35.025 15.439 A 8.426 8.426 0 0 1 34.116 17.199 A 7.093 7.093 0 0 1 33.179 18.311 Q 31.992 19.453 30.352 20.025 Q 28.711 20.596 26.719 20.596 A 12.09 12.09 0 0 1 24.5 20.4 A 9.982 9.982 0 0 1 23.071 20.025 A 7.75 7.75 0 0 1 20.711 18.735 A 7.315 7.315 0 0 1 20.23 18.311 A 7.398 7.398 0 0 1 18.753 16.28 A 9.09 9.09 0 0 1 18.384 15.44 Q 17.725 13.711 17.725 11.426 Z M 56.279 11.426 L 56.279 9.141 A 13.405 13.405 0 0 1 56.415 7.187 Q 56.578 6.079 56.939 5.142 A 8.349 8.349 0 0 1 57.907 3.308 A 7.136 7.136 0 0 1 58.784 2.285 A 7.566 7.566 0 0 1 61.421 0.645 A 8.731 8.731 0 0 1 61.626 0.571 A 10.452 10.452 0 0 1 64.047 0.057 A 12.856 12.856 0 0 1 65.274 0 A 12.073 12.073 0 0 1 67.404 0.181 A 9.834 9.834 0 0 1 68.906 0.571 A 7.677 7.677 0 0 1 71.545 2.11 A 7.437 7.437 0 0 1 71.734 2.285 Q 72.92 3.428 73.579 5.142 A 9.522 9.522 0 0 1 74.092 7.116 Q 74.238 8.065 74.238 9.141 L 74.238 11.426 A 13.43 13.43 0 0 1 74.098 13.414 A 9.706 9.706 0 0 1 73.58 15.439 A 8.426 8.426 0 0 1 72.671 17.199 A 7.093 7.093 0 0 1 71.734 18.311 Q 70.547 19.453 68.906 20.025 Q 67.266 20.596 65.274 20.596 A 12.09 12.09 0 0 1 63.055 20.4 A 9.982 9.982 0 0 1 61.626 20.025 A 7.75 7.75 0 0 1 59.266 18.735 A 7.315 7.315 0 0 1 58.784 18.311 A 7.398 7.398 0 0 1 57.307 16.28 A 9.09 9.09 0 0 1 56.939 15.44 Q 56.279 13.711 56.279 11.426 Z M 33.399 11.309 L 33.399 9.258 A 10.967 10.967 0 0 0 33.279 7.602 A 8.62 8.62 0 0 0 32.974 6.284 A 6.724 6.724 0 0 0 32.283 4.767 A 5.842 5.842 0 0 0 31.714 3.999 A 5.42 5.42 0 0 0 29.852 2.634 A 6.375 6.375 0 0 0 29.619 2.534 Q 28.359 2.022 26.719 2.022 A 8.907 8.907 0 0 0 25.268 2.134 A 6.566 6.566 0 0 0 23.833 2.534 A 5.688 5.688 0 0 0 21.957 3.768 A 5.498 5.498 0 0 0 21.738 3.999 A 6.199 6.199 0 0 0 20.637 5.778 A 7.389 7.389 0 0 0 20.449 6.284 A 8.651 8.651 0 0 0 20.074 8.047 A 11.03 11.03 0 0 0 20.01 9.258 L 20.01 11.309 A 10.904 10.904 0 0 0 20.127 12.941 A 8.377 8.377 0 0 0 20.449 14.312 A 6.662 6.662 0 0 0 21.137 15.789 A 5.744 5.744 0 0 0 21.738 16.582 A 5.679 5.679 0 0 0 23.679 17.967 A 6.582 6.582 0 0 0 23.833 18.032 A 6.622 6.622 0 0 0 25.359 18.447 A 9.002 9.002 0 0 0 26.719 18.545 A 8.967 8.967 0 0 0 28.173 18.432 A 6.712 6.712 0 0 0 29.619 18.032 A 5.801 5.801 0 0 0 31.12 17.152 A 5.241 5.241 0 0 0 31.714 16.582 A 5.944 5.944 0 0 0 32.752 14.915 A 7.211 7.211 0 0 0 32.974 14.312 A 8.824 8.824 0 0 0 33.323 12.658 A 11.582 11.582 0 0 0 33.399 11.309 Z M 71.953 11.309 L 71.953 9.258 A 10.967 10.967 0 0 0 71.833 7.602 A 8.62 8.62 0 0 0 71.528 6.284 A 6.724 6.724 0 0 0 70.837 4.767 A 5.842 5.842 0 0 0 70.269 3.999 A 5.42 5.42 0 0 0 68.406 2.634 A 6.375 6.375 0 0 0 68.174 2.534 Q 66.914 2.022 65.274 2.022 A 8.907 8.907 0 0 0 63.822 2.134 A 6.566 6.566 0 0 0 62.388 2.534 A 5.688 5.688 0 0 0 60.512 3.768 A 5.498 5.498 0 0 0 60.293 3.999 A 6.199 6.199 0 0 0 59.191 5.778 A 7.389 7.389 0 0 0 59.004 6.284 A 8.651 8.651 0 0 0 58.629 8.047 A 11.03 11.03 0 0 0 58.565 9.258 L 58.565 11.309 A 10.904 10.904 0 0 0 58.681 12.941 A 8.377 8.377 0 0 0 59.004 14.312 A 6.662 6.662 0 0 0 59.692 15.789 A 5.744 5.744 0 0 0 60.293 16.582 A 5.679 5.679 0 0 0 62.234 17.967 A 6.582 6.582 0 0 0 62.388 18.032 A 6.622 6.622 0 0 0 63.914 18.447 A 9.002 9.002 0 0 0 65.274 18.545 A 8.967 8.967 0 0 0 66.728 18.432 A 6.712 6.712 0 0 0 68.174 18.032 A 5.801 5.801 0 0 0 69.675 17.152 A 5.241 5.241 0 0 0 70.269 16.582 A 5.944 5.944 0 0 0 71.307 14.915 A 7.211 7.211 0 0 0 71.528 14.312 A 8.824 8.824 0 0 0 71.878 12.658 A 11.582 11.582 0 0 0 71.953 11.309 Z M 132.71 17.989 A 1.458 1.458 0 0 0 132.246 19.072 A 1.483 1.483 0 0 0 132.406 19.757 A 1.678 1.678 0 0 0 132.774 20.23 A 2.212 2.212 0 0 0 132.811 20.263 A 1.719 1.719 0 0 0 133.975 20.713 Q 134.649 20.713 135.161 20.23 A 1.986 1.986 0 0 0 135.201 20.192 A 1.526 1.526 0 0 0 135.674 19.072 A 1.501 1.501 0 0 0 135.542 18.441 A 1.585 1.585 0 0 0 135.161 17.93 A 1.705 1.705 0 0 0 133.975 17.461 Q 133.301 17.461 132.774 17.93 A 1.912 1.912 0 0 0 132.71 17.989 Z" vector-effect="non-scaling-stroke"/></g></svg>